Coordinates
version=1
nRows=32
nColumns=12
inDegrees=yes

Units are S.I. units (second, meters, Newtons, ...)
Angles are in degrees

endheader
time	SC_y	SC_z	SC_x	AC_y	AC_z	AC_x	GH_y	GH_z	GH_yy	EL_x	PS_y
       0.0              -25.81          26.82          32.67          62.37         0.8015          8.781          0.125          56.29         -95.95          22.33           72.2
   0.02662              -25.81          26.82          32.67          62.37          0.801          8.779         0.1237          56.29         -95.95          22.33          72.19
   0.05324              -25.81          26.82          32.68          62.37         0.8005          8.777         0.1224          56.28         -95.96          22.33          72.18
   0.07986              -25.81          26.82          32.69          62.37            0.8          8.775          0.121          56.27         -95.96          22.33          72.17
    0.1065               -25.8          26.82          32.69          62.37         0.7995          8.773         0.1194          56.26         -95.97          22.33          72.15
    0.1331               -25.8          26.82           32.7          62.37         0.7989          8.771         0.1178          56.26         -95.97          22.33          72.14
    0.1597               -25.8          26.83          32.71          62.36         0.7983          8.768         0.1161          56.25         -95.98          22.33          72.13
    0.1863               -25.8          26.83          32.71          62.36         0.7976          8.765         0.1142          56.24         -95.98          22.34          72.11
     0.213               -25.8          26.83          32.72          62.36         0.7969          8.763         0.1122          56.23         -95.99          22.34           72.1
    0.2396               -25.8          26.83          32.73          62.36         0.7961           8.76         0.1101          56.22          -96.0          22.34          72.08
    0.2662               -25.8          26.83          32.74          62.36         0.7952          8.756         0.1078          56.21          -96.0          22.34          72.06
    0.2928               -25.8          26.83          32.75          62.36         0.7943          8.753         0.1053          56.19         -96.01          22.34          72.05
    0.3194              -25.79          26.84          32.76          62.36         0.7934          8.749         0.1027          56.18         -96.02          22.35          72.02
    0.3461              -25.79          26.84          32.77          62.36         0.7923          8.745        0.09979          56.17         -96.03          22.35           72.0
    0.3727              -25.79          26.84          32.79          62.36         0.7912          8.741        0.09668          56.15         -96.04          22.35          71.98
    0.3993              -25.79          26.84           32.8          62.36           0.79          8.736        0.09331          56.13         -96.05          22.35          71.95
    0.4259              -25.79          26.84          32.82          62.36         0.7887          8.731        0.08965          56.11         -96.06          22.36          71.92
    0.4526              -25.78          26.85          32.83          62.35         0.7872          8.725        0.08565          56.09         -96.07          22.36          71.89
    0.4792              -25.78          26.85          32.85          62.35         0.7856          8.719         0.0813          56.07         -96.09          22.36          71.86
    0.5058              -25.78          26.85          32.87          62.35         0.7839          8.712        0.07652          56.05          -96.1          22.37          71.82
    0.5324              -25.78          26.86          32.89          62.35          0.782          8.705        0.07128          56.02         -96.12          22.37          71.78
     0.559              -25.77          26.86          32.92          62.35         0.7799          8.697        0.06552          55.99         -96.14          22.38          71.74
    0.5857              -25.77          26.87          32.94          62.35         0.7776          8.688        0.05915          55.96         -96.16          22.38          71.69
    0.6123              -25.77          26.87          32.97          62.34          0.775          8.678        0.05209          55.93         -96.18          22.39          71.63
    0.6389              -25.76          26.88          33.01          62.34         0.7722          8.666        0.04425          55.89         -96.21          22.39          71.57
    0.6655              -25.76          26.88          33.04          62.34          0.769          8.654        0.03549          55.84         -96.23           22.4          71.51
    0.6921              -25.75          26.89          33.08          62.33         0.7654           8.64        0.02569          55.79         -96.26          22.41          71.43
    0.7188              -25.74           26.9          33.13          62.33         0.7614          8.625        0.01465          55.74          -96.3          22.42          71.35
    0.7454              -25.74          26.91          33.18          62.33         0.7569          8.607       0.002189          55.68         -96.34          22.43          71.25
     0.772              -25.73          26.92          33.24          62.32         0.7517          8.587       -0.01196          55.61         -96.38          22.44          71.14
    0.7986              -25.72          26.93          33.31          62.32         0.7459          8.564       -0.02812          55.52         -96.44          22.46          71.02
    0.8252              -25.71          26.94          33.39          62.31         0.7391          8.538       -0.04666          55.43         -96.49          22.47          70.87
